<svg width="112" height="29" viewBox="0 0 112 29" fill="none" xmlns="http://www.w3.org/2000/svg">
<path d="M21.0822 3.48L12.7646 16.2702L18.9563 26.964L11.8801 28.2025L7.24395 21.6775L6.99995 28.5046L0.390411 29L0 4.64L7.24395 3.86667L7.70147 12.8265L14.8356 0L21.0822 3.48Z" fill="#FF004F"/>
<path d="M37.7296 13.3098C37.7296 14.2865 37.5821 15.1525 37.2873 15.9077C36.9925 16.6629 36.5858 17.3225 36.0673 17.8864C35.5589 18.4502 34.9591 18.9285 34.2677 19.3212C33.5764 19.714 32.8342 20.0362 32.0411 20.2879C31.2583 20.5296 30.4449 20.7108 29.6011 20.8317C28.7572 20.9424 27.9286 21.0028 27.1153 21.0129V28.0515H20.0086C20.0086 25.7456 20.0136 23.4497 20.0238 21.164C20.034 18.8782 20.0492 16.5723 20.0696 14.2462C20.0899 13.0178 20.095 11.7893 20.0848 10.5608C20.0746 9.33236 20.1001 8.09382 20.1611 6.84521C21.4624 6.46257 22.7638 6.17559 24.0652 5.98427C25.3665 5.79295 26.7086 5.69729 28.0913 5.69729C28.8741 5.69729 29.657 5.76274 30.4399 5.89365C31.2227 6.01448 31.97 6.21083 32.6817 6.48271C33.4035 6.75458 34.0695 7.09694 34.6795 7.50979C35.2997 7.91257 35.8334 8.3959 36.2808 8.95979C36.7281 9.52368 37.0789 10.1681 37.333 10.8931C37.5974 11.6081 37.7296 12.4136 37.7296 13.3098ZM30.9584 13.8233C30.9584 13.1688 30.755 12.6603 30.3484 12.2978C29.9518 11.9252 29.4333 11.739 28.7928 11.739C28.5793 11.739 28.3556 11.7591 28.1218 11.7994C27.8981 11.8296 27.6846 11.8699 27.4813 11.9202L27.2983 16.3306C27.4406 16.3508 27.5779 16.3608 27.71 16.3608C27.8422 16.3608 27.9795 16.3608 28.1218 16.3608C28.4878 16.3608 28.8386 16.3004 29.1741 16.1796C29.5197 16.0587 29.8248 15.8876 30.0891 15.666C30.3534 15.4344 30.5619 15.1676 30.7144 14.8655C30.877 14.5534 30.9584 14.206 30.9584 13.8233Z" fill="#FF004F"/>
<path d="M57 28.0515H49.1918L47.7033 24.0942H44.2262L42.5548 28.2025L34.6795 28.0515L41.7557 6.63375L50.2349 6.21083L57 28.0515ZM47.1543 19.4723L45.9953 14.216L44.8668 19.4723H47.1543Z" fill="#FF004F"/>
<path d="M66.0389 20.5412H62.5855V17.8077H66.0389C66.6403 17.8077 67.1263 17.6612 67.4969 17.3681C67.8674 17.0751 68.1378 16.6722 68.3078 16.1593C68.484 15.6374 68.5721 15.0421 68.5721 14.3736C68.5721 13.7418 68.484 13.1511 68.3078 12.6016C68.1378 12.043 67.8674 11.5943 67.4969 11.2555C67.1263 10.9167 66.6403 10.7473 66.0389 10.7473H63.2871V28H61V8H66.0389C67.0656 8 67.9373 8.27473 68.6541 8.82418C69.377 9.36447 69.9267 10.1154 70.3034 11.0769C70.68 12.0293 70.8683 13.119 70.8683 14.3462C70.8683 15.6374 70.68 16.7454 70.3034 17.6703C69.9267 18.5952 69.377 19.3049 68.6541 19.7994C67.9373 20.294 67.0656 20.5412 66.0389 20.5412Z" fill="white"/>
<path d="M81.6023 25.2665V28H74.5587V25.2665H81.6023ZM75.2056 8V28H72.9185V8H75.2056ZM80.682 16.3516V19.044H74.5587V16.3516H80.682ZM81.5567 8V10.7473H74.5587V8H81.5567Z" fill="white"/>
<path d="M87.3246 28H84.4908L84.509 25.2665H87.3246C88.1447 25.2665 88.8312 24.9963 89.384 24.456C89.9428 23.9158 90.362 23.1419 90.6414 22.1346C90.9269 21.1273 91.0697 19.9277 91.0697 18.5357V17.4505C91.0697 16.37 90.9877 15.413 90.8237 14.5797C90.6657 13.7463 90.4288 13.0458 90.1129 12.478C89.8031 11.9103 89.4204 11.4799 88.9648 11.1868C88.5153 10.8938 87.9959 10.7473 87.4066 10.7473H84.4361V8H87.4066C88.2875 8 89.0924 8.22436 89.8213 8.67308C90.5503 9.11264 91.179 9.74908 91.7075 10.5824C92.2421 11.4158 92.6521 12.4139 92.9376 13.5769C93.2232 14.7399 93.3659 16.0403 93.3659 17.478V18.5357C93.3659 19.9734 93.2232 21.2738 92.9376 22.4368C92.6521 23.5998 92.2421 24.598 91.7075 25.4313C91.173 26.2555 90.5351 26.8919 89.794 27.3407C89.059 27.7802 88.2358 28 87.3246 28ZM85.7574 8V28H83.4703V8H85.7574Z" fill="white"/>
<path d="M98.1042 8V28H95.817V8H98.1042Z" fill="white"/>
<path d="M106.278 10.6648L102.314 28H99.9175L104.911 8H106.442L106.278 10.6648ZM109.594 28L105.622 10.6648L105.448 8H106.988L112 28H109.594ZM109.403 20.5824V23.3159H102.186V20.5824H109.403Z" fill="white"/>
</svg>
